<svg xmlns="http://www.w3.org/2000/svg" viewBox="0 0 46.88 52.32"><defs><style>.cls-1{fill:#445cea;}</style></defs><title>dat103</title><g id="Layer_2" data-name="Layer 2"><g id="Layer_1-2" data-name="Layer 1"><path class="cls-1" d="M44,10.93,26.38.79a5.88,5.88,0,0,0-5.88,0L2.94,10.93A5.88,5.88,0,0,0,0,16V36.3a5.89,5.89,0,0,0,2.94,5.09L20.5,51.53a5.87,5.87,0,0,0,5.88,0L44,41.39a5.9,5.9,0,0,0,2.93-5.09V16A5.87,5.87,0,0,0,44,10.93Zm-22.2-8a3.52,3.52,0,0,1,.45-.18v8.63a3.4,3.4,0,0,1-1.7,2.93l-8.9,5.14V8.8ZM4.18,39.23A3.4,3.4,0,0,1,2.49,36.3V16a3.39,3.39,0,0,1,1.69-2.92l4.93-2.85V38.81H11.6v-6L20.5,38a3.38,3.38,0,0,1,1.7,2.93v3.75l-4.56-2.62L16.4,44.21,21.14,47a4.25,4.25,0,0,0,1.06.44v2.17a3.57,3.57,0,0,1-.45-.19ZM44.39,36.3a3.4,3.4,0,0,1-1.69,2.93L25.13,49.37a3.43,3.43,0,0,1-.44.19V47.42A4.5,4.5,0,0,0,25.83,47l4.73-2.73-1.25-2.16-4.62,2.67v-3.8a5.91,5.91,0,0,0-2.94-5.09L11.6,30V22.33l10.15-5.86a5.88,5.88,0,0,0,2.94-5.08V2.76a3.38,3.38,0,0,1,.44.18L42.7,13.09A3.39,3.39,0,0,1,44.39,16Z"/></g></g></svg>