<svg xmlns="http://www.w3.org/2000/svg" viewBox="0 0 46.88 52.32"><defs><style>.cls-1{fill:#445cea;}</style></defs><title>inf142</title><g id="Layer_2" data-name="Layer 2"><g id="Layer_1-2" data-name="Layer 1"><path class="cls-1" d="M44,10.93,26.38.79a5.88,5.88,0,0,0-5.88,0L2.94,10.93A5.86,5.86,0,0,0,0,16V36.3a5.91,5.91,0,0,0,2.94,5.09L20.5,51.53a5.87,5.87,0,0,0,5.88,0L44,41.39a5.9,5.9,0,0,0,2.93-5.09V16A5.87,5.87,0,0,0,44,10.93ZM33.84,17.15V44.34l-1.24.72V16.43Zm2.49,17.36V18.59l1.25.72v15.2Zm0,6h4.19l-4.19,2.42Zm0-2.5V37h8a3.37,3.37,0,0,1-.37,1Zm3.74-3.48V20.75l2.63,1.51a5.51,5.51,0,0,0,1.69.64V34.51ZM44,20.1,26.38,10a3.4,3.4,0,0,1-1.69-2.84c.15.11.29.21.44.3L42.7,17.56a5.78,5.78,0,0,0,1.69.64v2.12A2.58,2.58,0,0,1,44,20.1Zm-1.25-7a3.4,3.4,0,0,1,1.67,2.52A2.74,2.74,0,0,1,44,15.4L26.38,5.26a3.38,3.38,0,0,1-1.66-2.49c.14.06.28.1.41.17ZM25.13,49.37a3.4,3.4,0,0,1-3.38,0L4.18,39.23A3.39,3.39,0,0,1,2.49,36.3V31H9.64V28.48H2.49V27.4H9.64V24.91H2.49V23.84H9.64V21.35H2.49V16a3.39,3.39,0,0,1,1.69-2.93l4.57-2.64,1.35.78a3.38,3.38,0,0,1,1.7,2.93v5.4h2.49v-5.4a5.88,5.88,0,0,0-2.94-5.09L11.25,9l4.07-2.35v12.9h2.49V5.22l3.94-2.28a3.52,3.52,0,0,1,.45-.18V7a5.9,5.9,0,0,0,2.93,5.09l5,2.87V46.5Z"/><circle class="cls-1" cx="13.04" cy="22.59" r="1.52"/><circle class="cls-1" cx="16.57" cy="22.59" r="1.52"/><circle class="cls-1" cx="13.04" cy="26.16" r="1.52"/><circle class="cls-1" cx="16.57" cy="26.16" r="1.52"/><circle class="cls-1" cx="20.09" cy="22.59" r="1.52"/><circle class="cls-1" cx="20.09" cy="26.16" r="1.52"/><circle class="cls-1" cx="13.04" cy="29.72" r="1.52"/><circle class="cls-1" cx="16.57" cy="29.72" r="1.52"/><circle class="cls-1" cx="13.04" cy="33.29" r="1.52"/><circle class="cls-1" cx="16.57" cy="33.29" r="1.52"/><circle class="cls-1" cx="20.09" cy="29.72" r="1.52"/><circle class="cls-1" cx="20.09" cy="33.29" r="1.52"/><circle class="cls-1" cx="13.04" cy="36.86" r="1.52"/><circle class="cls-1" cx="16.57" cy="36.86" r="1.52"/><circle class="cls-1" cx="20.09" cy="36.86" r="1.52"/></g></g></svg>