<svg xmlns="http://www.w3.org/2000/svg" viewBox="0 0 46.88 52.32"><defs><style>.cls-1{fill:#445cea;}</style></defs><title>inf144</title><g id="Layer_2" data-name="Layer 2"><g id="Layer_1-2" data-name="Layer 1"><path class="cls-1" d="M44,10.93,26.38.79a5.88,5.88,0,0,0-5.88,0L2.94,10.93A5.88,5.88,0,0,0,0,16V36.3a5.89,5.89,0,0,0,2.94,5.09L20.5,51.53a5.87,5.87,0,0,0,5.88,0L44,41.39a5.9,5.9,0,0,0,2.93-5.09V16A5.87,5.87,0,0,0,44,10.93ZM42.7,13.09A3.39,3.39,0,0,1,44.39,16V19.6a3.55,3.55,0,0,1-.44-.21L26.38,9.24a3.39,3.39,0,0,1-1.69-2.92V2.76a3.38,3.38,0,0,1,.44.18ZM4.18,39.23A3.4,3.4,0,0,1,2.49,36.3V31H9.64V28.48H2.49V27.4H9.64V24.91H2.49V23.84H9.64V21.35H2.49V16a3.39,3.39,0,0,1,1.69-2.92L21.75,2.94a3.52,3.52,0,0,1,.45-.18V6.32a5.87,5.87,0,0,0,2.93,5.08L42.7,21.54a5.8,5.8,0,0,0,1.69.65v7.6a6.07,6.07,0,0,0-1.69.64L25.13,40.58a5.87,5.87,0,0,0-2.93,5.08v3.9a3.57,3.57,0,0,1-.45-.19Zm38.52,0L25.13,49.37a3.43,3.43,0,0,1-.44.19v-3.9a3.41,3.41,0,0,1,1.69-2.93L44,32.59a3.55,3.55,0,0,1,.44-.21V36.3A3.4,3.4,0,0,1,42.7,39.23Z"/><circle class="cls-1" cx="13.04" cy="22.59" r="1.52"/><circle class="cls-1" cx="16.57" cy="22.59" r="1.52"/><circle class="cls-1" cx="13.04" cy="26.16" r="1.52"/><circle class="cls-1" cx="16.57" cy="26.16" r="1.52"/><circle class="cls-1" cx="20.09" cy="22.59" r="1.52"/><circle class="cls-1" cx="20.09" cy="26.16" r="1.52"/><circle class="cls-1" cx="13.04" cy="29.72" r="1.52"/><circle class="cls-1" cx="16.57" cy="29.72" r="1.52"/><circle class="cls-1" cx="20.09" cy="29.72" r="1.52"/></g></g></svg>