<svg xmlns="http://www.w3.org/2000/svg" viewBox="0 0 46.88 52.32"><defs><style>.cls-1{fill:#445cea;}</style></defs><title>inf143</title><g id="Layer_2" data-name="Layer 2"><g id="Layer_1-2" data-name="Layer 1"><path class="cls-1" d="M44,10.93,26.38.78a5.93,5.93,0,0,0-5.88,0L2.94,10.93A5.86,5.86,0,0,0,0,16V36.3a5.89,5.89,0,0,0,2.94,5.09L20.5,51.53a5.87,5.87,0,0,0,5.88,0L44,41.39a5.9,5.9,0,0,0,2.93-5.09V16A5.87,5.87,0,0,0,44,10.93ZM4.18,13.09,21.75,2.94a2.56,2.56,0,0,1,.43-.17A3.41,3.41,0,0,1,20.5,5.44L2.94,15.58a4.25,4.25,0,0,1-.43.21A3.37,3.37,0,0,1,4.18,13.09Zm0,26.14A3.4,3.4,0,0,1,2.49,36.3V27.65a2.62,2.62,0,0,1,.45.21L9,31.36l1.24-2.16L4.18,25.7a5.67,5.67,0,0,0-1.69-.64V18.38a6,6,0,0,0,1.69-.64L21.75,7.6c.16-.09.3-.2.45-.3v5.2h2.49V2.76a3.38,3.38,0,0,1,.44.18L42.7,13.09A3.39,3.39,0,0,1,44.39,16V32.16a6.07,6.07,0,0,0-1.69.64L25.13,43l-.44.29V23.87H22.2V36.14c-.15-.1-.29-.21-.45-.3h0l-2.17-1.25a4.71,4.71,0,0,0,.05-.54,4.15,4.15,0,1,0-4.14,4.15,4.09,4.09,0,0,0,3-1.35l2,1.15h0a3.39,3.39,0,0,1,1.7,2.93v8.63a3.57,3.57,0,0,1-.45-.19Zm11.31-3.52a1.66,1.66,0,1,1,1.65-1.66A1.66,1.66,0,0,1,15.49,35.71ZM42.7,39.23,25.13,49.37a3.43,3.43,0,0,1-.44.19V48a3.41,3.41,0,0,1,1.69-2.93L44,35a3.55,3.55,0,0,1,.44-.21V36.3A3.4,3.4,0,0,1,42.7,39.23Z"/></g></g></svg>