<svg xmlns="http://www.w3.org/2000/svg" viewBox="0 0 129.05 130.35"><defs><style>.cls-1{fill:#445cea;}</style></defs><title>PatternSmall</title><g id="Layer_2" data-name="Layer 2"><g id="Layer_1-2" data-name="Layer 1"><path class="cls-1" d="M26.24,30.08a3.4,3.4,0,0,1-1.69-.45L14.45,23.8a3.4,3.4,0,0,1-1.69-2.93V9.21a3.39,3.39,0,0,1,1.69-2.93L24.55.45a3.4,3.4,0,0,1,3.38,0L38,6.28a3.39,3.39,0,0,1,1.69,2.93V20.87A3.4,3.4,0,0,1,38,23.8l-10.1,5.83A3.37,3.37,0,0,1,26.24,30.08Zm0-28.65a2,2,0,0,0-1,.26L15.17,7.52a2,2,0,0,0-1,1.69V20.87a1.94,1.94,0,0,0,1,1.68l10.1,5.84a2,2,0,0,0,1.94,0l10.1-5.84a2,2,0,0,0,1-1.68V9.21a2,2,0,0,0-1-1.69L27.21,1.69A2,2,0,0,0,26.24,1.43Z"/><path class="cls-1" d="M77.29,30.08a3.4,3.4,0,0,1-1.69-.45L65.5,23.8a3.4,3.4,0,0,1-1.69-2.93V9.21A3.39,3.39,0,0,1,65.5,6.28L75.6.45A3.4,3.4,0,0,1,79,.45l10.1,5.83a3.39,3.39,0,0,1,1.69,2.93V20.87a3.4,3.4,0,0,1-1.69,2.93L79,29.63A3.4,3.4,0,0,1,77.29,30.08Zm0-28.65a2,2,0,0,0-1,.26L66.22,7.52a2,2,0,0,0-1,1.69V20.87a2,2,0,0,0,1,1.68l10.1,5.84a2,2,0,0,0,1.94,0l10.1-5.84a1.94,1.94,0,0,0,1-1.68V9.21a2,2,0,0,0-1-1.69L78.26,1.69A2,2,0,0,0,77.29,1.43Z"/><path class="cls-1" d="M102.81,30.08a3.4,3.4,0,0,1-1.69-.45L91,23.8a3.41,3.41,0,0,1-1.69-2.93V9.21A3.4,3.4,0,0,1,91,6.28L101.12.45a3.4,3.4,0,0,1,3.38,0l10.1,5.83a3.39,3.39,0,0,1,1.69,2.93V20.87a3.4,3.4,0,0,1-1.69,2.93l-10.1,5.83A3.37,3.37,0,0,1,102.81,30.08Zm0-28.65a2,2,0,0,0-1,.26L91.74,7.52a2,2,0,0,0-1,1.69V20.87a1.94,1.94,0,0,0,1,1.68l10.1,5.84a2,2,0,0,0,2,0l10.1-5.84a1.94,1.94,0,0,0,1-1.68V9.21a2,2,0,0,0-1-1.69l-10.1-5.83A2,2,0,0,0,102.81,1.43Z"/><path class="cls-1" d="M13.48,44.4A3.37,3.37,0,0,1,11.79,44L1.69,38.12A3.39,3.39,0,0,1,0,35.2V23.53a3.39,3.39,0,0,1,1.69-2.92l10.1-5.84a3.37,3.37,0,0,1,3.38,0l10.1,5.83A3.39,3.39,0,0,1,27,23.53V35.2a3.39,3.39,0,0,1-1.69,2.92L15.17,44A3.4,3.4,0,0,1,13.48,44.4Zm0-28.64a1.86,1.86,0,0,0-1,.26L2.41,21.85a2,2,0,0,0-1,1.68V35.2a2,2,0,0,0,1,1.68l10.1,5.83a1.92,1.92,0,0,0,1.94,0l10.1-5.83a2,2,0,0,0,1-1.68V23.53a1.94,1.94,0,0,0-1-1.68L14.45,16A1.86,1.86,0,0,0,13.48,15.76Z"/><path class="cls-1" d="M39,44.4A3.4,3.4,0,0,1,37.31,44l-10.1-5.83a3.39,3.39,0,0,1-1.69-2.92V23.53a3.39,3.39,0,0,1,1.69-2.92l10.1-5.84a3.37,3.37,0,0,1,3.38,0l10.1,5.83a3.39,3.39,0,0,1,1.69,2.92V35.2a3.39,3.39,0,0,1-1.69,2.92L40.69,44A3.37,3.37,0,0,1,39,44.4Zm0-28.64A1.88,1.88,0,0,0,38,16l-10.1,5.83a1.94,1.94,0,0,0-1,1.68V35.2a2,2,0,0,0,1,1.68L38,42.71a1.94,1.94,0,0,0,1.95,0l10.1-5.83a2,2,0,0,0,1-1.68V23.53a1.94,1.94,0,0,0-1-1.68L40,16A1.89,1.89,0,0,0,39,15.76Z"/><path class="cls-1" d="M64.53,44.4A3.37,3.37,0,0,1,62.84,44l-10.1-5.83a3.39,3.39,0,0,1-1.69-2.92V23.53a3.39,3.39,0,0,1,1.69-2.92l10.1-5.84a3.37,3.37,0,0,1,3.38,0l10.1,5.83A3.39,3.39,0,0,1,78,23.53V35.2a3.39,3.39,0,0,1-1.69,2.92L66.22,44A3.4,3.4,0,0,1,64.53,44.4Zm0-28.64a1.89,1.89,0,0,0-1,.26l-10.1,5.83a1.94,1.94,0,0,0-1,1.68V35.2a2,2,0,0,0,1,1.68l10.1,5.83a1.94,1.94,0,0,0,2,0l10.1-5.83a2,2,0,0,0,1-1.68V23.53a1.94,1.94,0,0,0-1-1.68L65.5,16A1.88,1.88,0,0,0,64.53,15.76Z"/><path class="cls-1" d="M90.05,44.4A3.4,3.4,0,0,1,88.36,44l-10.1-5.83a3.39,3.39,0,0,1-1.69-2.92V23.53a3.39,3.39,0,0,1,1.69-2.92l10.1-5.84a3.37,3.37,0,0,1,3.38,0l10.1,5.83a3.39,3.39,0,0,1,1.69,2.92V35.2a3.39,3.39,0,0,1-1.69,2.92L91.74,44A3.37,3.37,0,0,1,90.05,44.4Zm0-28.64a1.86,1.86,0,0,0-1,.26L79,21.85a1.94,1.94,0,0,0-1,1.68V35.2a2,2,0,0,0,1,1.68l10.1,5.83a1.92,1.92,0,0,0,1.94,0l10.1-5.83a2,2,0,0,0,1-1.68V23.53a2,2,0,0,0-1-1.68L91,16A1.86,1.86,0,0,0,90.05,15.76Z"/><path class="cls-1" d="M115.58,44.4a3.37,3.37,0,0,1-1.69-.45l-10.1-5.83a3.36,3.36,0,0,1-1.69-2.92V23.53a3.36,3.36,0,0,1,1.69-2.92l10.1-5.84a3.43,3.43,0,0,1,3.37,0l10.11,5.84a3.38,3.38,0,0,1,1.68,2.92V35.2a3.38,3.38,0,0,1-1.68,2.92L117.26,44A3.36,3.36,0,0,1,115.58,44.4Zm0-28.64a1.89,1.89,0,0,0-1,.26l-10.1,5.83a1.94,1.94,0,0,0-1,1.68V35.2a2,2,0,0,0,1,1.68l10.1,5.83a1.94,1.94,0,0,0,2,0l10.1-5.83a2,2,0,0,0,1-1.68V23.53a1.94,1.94,0,0,0-1-1.68L116.55,16A1.88,1.88,0,0,0,115.58,15.76Z"/><path class="cls-1" d="M26.24,58.73a3.4,3.4,0,0,1-1.69-.45l-10.1-5.83a3.41,3.41,0,0,1-1.69-2.93V37.86a3.39,3.39,0,0,1,1.69-2.93l10.1-5.83a3.4,3.4,0,0,1,3.38,0L38,34.93a3.39,3.39,0,0,1,1.69,2.93V49.52A3.39,3.39,0,0,1,38,52.44l-10.1,5.84A3.37,3.37,0,0,1,26.24,58.73Zm0-28.65a2,2,0,0,0-1,.26l-10.1,5.83a2,2,0,0,0-1,1.69V49.52a1.94,1.94,0,0,0,1,1.68L25.27,57a2,2,0,0,0,1.94,0l10.1-5.84a2,2,0,0,0,1-1.68V37.86a2,2,0,0,0-1-1.69l-10.1-5.83A2,2,0,0,0,26.24,30.08Z"/><path class="cls-1" d="M51.77,58.73a3.37,3.37,0,0,1-1.69-.45L40,52.45a3.39,3.39,0,0,1-1.69-2.93V37.86A3.37,3.37,0,0,1,40,34.93l10.1-5.83a3.38,3.38,0,0,1,3.37,0l10.1,5.83a3.37,3.37,0,0,1,1.69,2.93V49.52a3.36,3.36,0,0,1-1.69,2.92l-10.1,5.84A3.36,3.36,0,0,1,51.77,58.73Zm0-28.65a2,2,0,0,0-1,.26l-10.1,5.83a2,2,0,0,0-1,1.69V49.52a1.94,1.94,0,0,0,1,1.68L50.79,57a2,2,0,0,0,2,0l10.1-5.84a1.94,1.94,0,0,0,1-1.68V37.86a2,2,0,0,0-1-1.69l-10.1-5.83A2,2,0,0,0,51.76,30.08Z"/><path class="cls-1" d="M77.29,58.73a3.4,3.4,0,0,1-1.69-.45L65.5,52.45a3.41,3.41,0,0,1-1.69-2.93V37.86a3.39,3.39,0,0,1,1.69-2.93L75.6,29.1a3.4,3.4,0,0,1,3.38,0l10.1,5.83a3.39,3.39,0,0,1,1.69,2.93V49.52a3.39,3.39,0,0,1-1.69,2.92L79,58.28A3.4,3.4,0,0,1,77.29,58.73Zm0-28.65a2,2,0,0,0-1,.26l-10.1,5.83a2,2,0,0,0-1,1.69V49.52a2,2,0,0,0,1,1.68L76.32,57a2,2,0,0,0,1.94,0l10.1-5.84a1.94,1.94,0,0,0,1-1.68V37.86a2,2,0,0,0-1-1.69l-10.1-5.83A2,2,0,0,0,77.29,30.08Z"/><path class="cls-1" d="M13.48,73.05a3.37,3.37,0,0,1-1.69-.45L1.69,66.77A3.39,3.39,0,0,1,0,63.84V52.18a3.39,3.39,0,0,1,1.69-2.92l10.1-5.84a3.37,3.37,0,0,1,3.38,0l10.1,5.83A3.39,3.39,0,0,1,27,52.18V63.84a3.39,3.39,0,0,1-1.69,2.93L15.17,72.6A3.4,3.4,0,0,1,13.48,73.05Zm0-28.64a1.86,1.86,0,0,0-1,.26L2.41,50.5a2,2,0,0,0-1,1.68V63.84a2,2,0,0,0,1,1.69l10.1,5.83a1.92,1.92,0,0,0,1.94,0l10.1-5.83a2,2,0,0,0,1-1.69V52.18a1.94,1.94,0,0,0-1-1.68l-10.1-5.83A1.86,1.86,0,0,0,13.48,44.41Z"/><path class="cls-1" d="M39,73.05a3.4,3.4,0,0,1-1.69-.45l-10.1-5.83a3.39,3.39,0,0,1-1.69-2.93V52.18a3.39,3.39,0,0,1,1.69-2.92l10.1-5.84a3.37,3.37,0,0,1,3.38,0l10.1,5.83a3.39,3.39,0,0,1,1.69,2.92V63.84a3.39,3.39,0,0,1-1.69,2.93L40.69,72.6A3.37,3.37,0,0,1,39,73.05Zm0-28.64a1.88,1.88,0,0,0-1,.26L27.93,50.5a1.94,1.94,0,0,0-1,1.68V63.84a2,2,0,0,0,1,1.69L38,71.36a1.94,1.94,0,0,0,1.95,0l10.1-5.83a2,2,0,0,0,1-1.69V52.18a1.94,1.94,0,0,0-1-1.68L40,44.67A1.89,1.89,0,0,0,39,44.41Z"/><path class="cls-1" d="M64.53,73.05a3.37,3.37,0,0,1-1.69-.45l-10.1-5.83a3.39,3.39,0,0,1-1.69-2.93V52.18a3.39,3.39,0,0,1,1.69-2.92l10.1-5.84a3.37,3.37,0,0,1,3.38,0l10.1,5.83A3.39,3.39,0,0,1,78,52.18V63.84a3.39,3.39,0,0,1-1.69,2.93L66.22,72.6A3.4,3.4,0,0,1,64.53,73.05Zm0-28.64a1.89,1.89,0,0,0-1,.26L53.45,50.5a1.94,1.94,0,0,0-1,1.68V63.84a2,2,0,0,0,1,1.69l10.1,5.83a1.94,1.94,0,0,0,2,0l10.1-5.83a2,2,0,0,0,1-1.69V52.18a1.94,1.94,0,0,0-1-1.68L65.5,44.67A1.88,1.88,0,0,0,64.53,44.41Z"/><path class="cls-1" d="M115.58,73.05a3.37,3.37,0,0,1-1.69-.45l-10.1-5.83a3.37,3.37,0,0,1-1.69-2.93V52.18a3.36,3.36,0,0,1,1.69-2.92l10.1-5.84a3.38,3.38,0,0,1,3.37,0l10.11,5.84a3.38,3.38,0,0,1,1.68,2.92V63.84a3.38,3.38,0,0,1-1.68,2.93L117.26,72.6A3.36,3.36,0,0,1,115.58,73.05Zm0-28.64a1.89,1.89,0,0,0-1,.26L104.5,50.5a1.94,1.94,0,0,0-1,1.68V63.84a2,2,0,0,0,1,1.69l10.1,5.83a1.94,1.94,0,0,0,2,0l10.1-5.83a2,2,0,0,0,1-1.69V52.18a1.94,1.94,0,0,0-1-1.68l-10.1-5.83A1.88,1.88,0,0,0,115.58,44.41Z"/><path class="cls-1" d="M26.24,87.38a3.4,3.4,0,0,1-1.69-.45L14.45,81.1a3.41,3.41,0,0,1-1.69-2.93V66.51a3.39,3.39,0,0,1,1.69-2.93l10.1-5.83a3.4,3.4,0,0,1,3.38,0L38,63.58a3.39,3.39,0,0,1,1.69,2.93V78.17A3.39,3.39,0,0,1,38,81.09l-10.1,5.84A3.4,3.4,0,0,1,26.24,87.38Zm0-28.65a2,2,0,0,0-1,.26l-10.1,5.83a2,2,0,0,0-1,1.69V78.17a1.94,1.94,0,0,0,1,1.68l10.1,5.84a2,2,0,0,0,1.94,0l10.1-5.84a2,2,0,0,0,1-1.68V66.51a2,2,0,0,0-1-1.69L27.21,59A2,2,0,0,0,26.24,58.73Z"/><path class="cls-1" d="M51.76,87.38a3.36,3.36,0,0,1-1.68-.45L40,81.1a3.39,3.39,0,0,1-1.69-2.93V66.51A3.37,3.37,0,0,1,40,63.58l10.1-5.83a3.38,3.38,0,0,1,3.37,0l10.1,5.83a3.37,3.37,0,0,1,1.69,2.93V78.17a3.36,3.36,0,0,1-1.69,2.92l-10.1,5.84A3.37,3.37,0,0,1,51.76,87.38Zm0-28.65a2,2,0,0,0-1,.26l-10.1,5.83a2,2,0,0,0-1,1.69V78.17a1.94,1.94,0,0,0,1,1.68l10.1,5.84a2,2,0,0,0,2,0l10.1-5.84a1.94,1.94,0,0,0,1-1.68V66.51a2,2,0,0,0-1-1.69L52.74,59A2,2,0,0,0,51.76,58.73Z"/><path class="cls-1" d="M77.29,87.38a3.4,3.4,0,0,1-1.69-.45L65.5,81.1a3.41,3.41,0,0,1-1.69-2.93V66.51a3.39,3.39,0,0,1,1.69-2.93l10.1-5.83a3.4,3.4,0,0,1,3.38,0l10.1,5.83a3.39,3.39,0,0,1,1.69,2.93V78.17a3.39,3.39,0,0,1-1.69,2.92L79,86.93A3.4,3.4,0,0,1,77.29,87.38Zm0-28.65a2,2,0,0,0-1,.26l-10.1,5.83a2,2,0,0,0-1,1.69V78.17a2,2,0,0,0,1,1.68l10.1,5.84a2,2,0,0,0,1.94,0l10.1-5.84a1.94,1.94,0,0,0,1-1.68V66.51a2,2,0,0,0-1-1.69L78.26,59A2,2,0,0,0,77.29,58.73Z"/><path class="cls-1" d="M102.81,87.38a3.42,3.42,0,0,1-1.69-.45L91,81.1a3.41,3.41,0,0,1-1.69-2.93V66.51A3.39,3.39,0,0,1,91,63.58l10.1-5.83a3.4,3.4,0,0,1,3.38,0l10.1,5.83a3.39,3.39,0,0,1,1.69,2.93V78.17a3.41,3.41,0,0,1-1.69,2.93l-10.1,5.83A3.37,3.37,0,0,1,102.81,87.38Zm0-28.65a2,2,0,0,0-1,.26l-10.1,5.83a2,2,0,0,0-1,1.69V78.17a1.94,1.94,0,0,0,1,1.68l10.1,5.84a2,2,0,0,0,2,0l10.1-5.84a1.94,1.94,0,0,0,1-1.68V66.51a2,2,0,0,0-1-1.69L103.79,59A2,2,0,0,0,102.81,58.73Z"/><path class="cls-1" d="M13.48,101.7a3.37,3.37,0,0,1-1.69-.45L1.69,95.42A3.39,3.39,0,0,1,0,92.49V80.83a3.39,3.39,0,0,1,1.69-2.92l10.1-5.84a3.4,3.4,0,0,1,3.38,0l10.1,5.83A3.41,3.41,0,0,1,27,80.83V92.49a3.39,3.39,0,0,1-1.69,2.93l-10.1,5.83A3.4,3.4,0,0,1,13.48,101.7Zm0-28.64a2,2,0,0,0-1,.25L2.41,79.15a2,2,0,0,0-1,1.68V92.49a2,2,0,0,0,1,1.69L12.51,100a1.92,1.92,0,0,0,1.94,0l10.1-5.83a2,2,0,0,0,1-1.69V80.83a1.94,1.94,0,0,0-1-1.68l-10.1-5.84A2,2,0,0,0,13.48,73.06Z"/><path class="cls-1" d="M39,101.7a3.4,3.4,0,0,1-1.69-.45l-10.1-5.83a3.39,3.39,0,0,1-1.69-2.93V80.83a3.39,3.39,0,0,1,1.69-2.92l10.1-5.84a3.4,3.4,0,0,1,3.38,0l10.1,5.83a3.41,3.41,0,0,1,1.69,2.93V92.49a3.39,3.39,0,0,1-1.69,2.93l-10.1,5.83A3.37,3.37,0,0,1,39,101.7Zm0-28.64a2,2,0,0,0-1,.25l-10.1,5.84a1.94,1.94,0,0,0-1,1.68V92.49a2,2,0,0,0,1,1.69L38,100A1.94,1.94,0,0,0,40,100l10.1-5.83a2,2,0,0,0,1-1.69V80.83a1.94,1.94,0,0,0-1-1.68L40,73.31A2,2,0,0,0,39,73.06Z"/><path class="cls-1" d="M64.53,101.7a3.37,3.37,0,0,1-1.69-.45l-10.1-5.83a3.39,3.39,0,0,1-1.69-2.93V80.83a3.39,3.39,0,0,1,1.69-2.92l10.1-5.84a3.4,3.4,0,0,1,3.38,0l10.1,5.83A3.41,3.41,0,0,1,78,80.83V92.49a3.39,3.39,0,0,1-1.69,2.93l-10.1,5.83A3.4,3.4,0,0,1,64.53,101.7Zm0-28.64a2,2,0,0,0-1,.25l-10.1,5.84a1.94,1.94,0,0,0-1,1.68V92.49a2,2,0,0,0,1,1.69L63.55,100a1.94,1.94,0,0,0,2,0l10.1-5.83a2,2,0,0,0,1-1.69V80.83a1.94,1.94,0,0,0-1-1.68L65.5,73.31A2,2,0,0,0,64.53,73.06Z"/><path class="cls-1" d="M90.05,101.7a3.4,3.4,0,0,1-1.69-.45l-10.1-5.83a3.39,3.39,0,0,1-1.69-2.93V80.83a3.41,3.41,0,0,1,1.69-2.93l10.1-5.83a3.4,3.4,0,0,1,3.38,0l10.1,5.83a3.41,3.41,0,0,1,1.69,2.93V92.49a3.39,3.39,0,0,1-1.69,2.93l-10.1,5.83A3.37,3.37,0,0,1,90.05,101.7Zm0-28.64a2,2,0,0,0-1,.25L79,79.15a1.94,1.94,0,0,0-1,1.68V92.49a2,2,0,0,0,1,1.69L89.08,100A1.92,1.92,0,0,0,91,100l10.1-5.83a2,2,0,0,0,1-1.69V80.83a2,2,0,0,0-1-1.68L91,73.31A2,2,0,0,0,90.05,73.06Z"/><path class="cls-1" d="M115.58,101.7a3.37,3.37,0,0,1-1.69-.45l-10.1-5.83a3.37,3.37,0,0,1-1.69-2.93V80.83a3.36,3.36,0,0,1,1.69-2.92l10.1-5.84a3.38,3.38,0,0,1,3.37,0l10.11,5.83a3.4,3.4,0,0,1,1.68,2.93V92.49a3.38,3.38,0,0,1-1.68,2.93l-10.11,5.83A3.36,3.36,0,0,1,115.58,101.7Zm0-28.64a2,2,0,0,0-1,.25l-10.1,5.84a1.94,1.94,0,0,0-1,1.68V92.49a2,2,0,0,0,1,1.69L114.6,100a1.94,1.94,0,0,0,2,0l10.1-5.83a2,2,0,0,0,1-1.69V80.83a1.94,1.94,0,0,0-1-1.68l-10.1-5.84A2,2,0,0,0,115.58,73.06Z"/><path class="cls-1" d="M26.24,116a3.31,3.31,0,0,1-1.69-.46l-10.1-5.83a3.39,3.39,0,0,1-1.69-2.92V95.15a3.39,3.39,0,0,1,1.69-2.92l10.1-5.83a3.4,3.4,0,0,1,3.38,0L38,92.23a3.39,3.39,0,0,1,1.69,2.92v11.67A3.39,3.39,0,0,1,38,109.74l-10.1,5.84A3.37,3.37,0,0,1,26.24,116Zm0-28.65a2,2,0,0,0-1,.26l-10.1,5.83a2,2,0,0,0-1,1.68v11.67a1.94,1.94,0,0,0,1,1.68l10.1,5.83a1.92,1.92,0,0,0,1.94,0l10.1-5.83a2,2,0,0,0,1-1.68V95.15a2,2,0,0,0-1-1.68l-10.1-5.83A2,2,0,0,0,26.24,87.38Z"/><path class="cls-1" d="M51.77,116a3.28,3.28,0,0,1-1.69-.46L40,109.74a3.36,3.36,0,0,1-1.69-2.92V95.15A3.36,3.36,0,0,1,40,92.23l10.1-5.83a3.38,3.38,0,0,1,3.37,0l10.1,5.83a3.36,3.36,0,0,1,1.69,2.92v11.67a3.36,3.36,0,0,1-1.69,2.92l-10.1,5.84A3.36,3.36,0,0,1,51.77,116Zm0-28.65a2,2,0,0,0-1,.26l-10.1,5.83a2,2,0,0,0-1,1.68v11.67a1.94,1.94,0,0,0,1,1.68l10.1,5.83a1.94,1.94,0,0,0,2,0l10.1-5.83a1.94,1.94,0,0,0,1-1.68V95.15a2,2,0,0,0-1-1.68l-10.1-5.83A2,2,0,0,0,51.76,87.38Z"/><path class="cls-1" d="M13.48,130.35a3.37,3.37,0,0,1-1.69-.45l-10.1-5.83A3.39,3.39,0,0,1,0,121.14V109.48a3.39,3.39,0,0,1,1.69-2.92l10.1-5.84a3.4,3.4,0,0,1,3.38,0l10.1,5.83A3.41,3.41,0,0,1,27,109.48v11.66a3.39,3.39,0,0,1-1.69,2.93l-10.1,5.83A3.4,3.4,0,0,1,13.48,130.35Zm0-28.65a2,2,0,0,0-1,.26L2.41,107.8a2,2,0,0,0-1,1.68v11.66a2,2,0,0,0,1,1.69l10.1,5.83a2,2,0,0,0,1.94,0l10.1-5.83a2,2,0,0,0,1-1.69V109.48a1.94,1.94,0,0,0-1-1.68L14.45,102A2,2,0,0,0,13.48,101.7Z"/><path class="cls-1" d="M64.53,130.35a3.37,3.37,0,0,1-1.69-.45l-10.1-5.83a3.39,3.39,0,0,1-1.69-2.93V109.48a3.39,3.39,0,0,1,1.69-2.92l10.1-5.84a3.4,3.4,0,0,1,3.38,0l10.1,5.83A3.41,3.41,0,0,1,78,109.48v11.66a3.39,3.39,0,0,1-1.69,2.93l-10.1,5.83A3.42,3.42,0,0,1,64.53,130.35Zm0-28.65a2,2,0,0,0-1,.26l-10.1,5.84a1.94,1.94,0,0,0-1,1.68v11.66a2,2,0,0,0,1,1.69l10.1,5.83a2,2,0,0,0,2,0l10.1-5.83a2,2,0,0,0,1-1.69V109.48a1.94,1.94,0,0,0-1-1.68L65.5,102A2,2,0,0,0,64.53,101.7Z"/></g></g></svg>